<svg id="visual" viewBox="0 0 960 540" width="960" height="540" xmlns="http://www.w3.org/2000/svg" xmlns:xlink="http://www.w3.org/1999/xlink" version="1.1"><rect x="0" y="0" width="960" height="540" fill="#001122"></rect><defs><linearGradient id="grad1_0" x1="43.8%" y1="0%" x2="100%" y2="100%"><stop offset="14.444444444444446%" stop-color="#001122" stop-opacity="1"></stop><stop offset="85.55555555555554%" stop-color="#001122" stop-opacity="1"></stop></linearGradient></defs><defs><linearGradient id="grad2_0" x1="0%" y1="0%" x2="56.3%" y2="100%"><stop offset="14.444444444444446%" stop-color="#001122" stop-opacity="1"></stop><stop offset="85.55555555555554%" stop-color="#001122" stop-opacity="1"></stop></linearGradient></defs><g transform="translate(960, 0)"><path d="M0 486C-49.7 447.1 -99.5 408.2 -161.9 390.8C-224.3 373.4 -299.3 377.6 -343.7 343.7C-388 309.7 -401.7 237.7 -420.4 174.1C-439 110.5 -462.5 55.2 -486 0L0 0Z" fill="#009473"></path></g><g transform="translate(0, 540)"><path d="M0 -486C41.6 -430.6 83.3 -375.2 149.6 -361.2C216 -347.3 307.1 -374.7 343.7 -343.7C380.2 -312.6 362.3 -223.2 376.9 -156.1C391.6 -89.1 438.8 -44.6 486 0L0 0Z" fill="#009473"></path></g></svg>